# AST/ASF file generated using VICON BodyLanguage
# -----------------------------------------------
:version 1.10
:name VICON
:units
  mass 1.0
  length 0.45
  angle deg
:documentation
   .ast/.asf automatically generated from VICON data using
   VICON BodyBuilder and BodyLanguage model FoxedUp or BRILLIANT.MOD
:root
   order TX TY TZ RX RY RZ
   axis XYZ
   position 0 0 0  
   orientation 0 0 0 
:bonedata
  begin
     id 1 
     name lhipjoint
     direction 0.677091 -0.635792 0.370561 
     length 2.74323 
     axis 0 0 0  XYZ
  end
  begin
     id 2 
     name lfemur
     direction 0.34202 -0.939693 0  
     length 7.44995  
     axis 0 0 20  XYZ
    dof rx ry rz
    limits (-160.0 20.0)
           (-70.0 70.0)
           (-60.0 70.0)
  end
  begin
     id 3 
     name ltibia
     direction 0.34202 -0.939693 0   
     length 7.34467   
     axis 0 0 20   XYZ
    dof rx
    limits (-10.0 170.0)
  end
  begin
     id 4 
     name lfoot
     direction 0.101953 -0.280114 0.954537   
     length 1.72105   
     axis -90 7.62852e-016 20   XYZ
    dof rx rz
    limits (-45.0 90.0)
           (-70.0 20.0)
  end
  begin
     id 5 
     name ltoes
     direction 1.53537e-011 -4.21915e-011 1   
     length 0.865872   
     axis -90 7.62852e-016 20   XYZ
    dof rx
    limits (-90.0 20.0)
  end
  begin
     id 6 
     name rhipjoint
     direction -0.695735 -0.620586 0.361699   
     length 2.81045  
     axis 0 0 0  XYZ 
  end
  begin
     id 7 
     name rfemur
     direction -0.34202 -0.939693 0   
     length 7.29387   
     axis 0 0 -20   XYZ
    dof rx ry rz
    limits (-160.0 20.0)
           (-70.0 70.0)
           (-70.0 60.0)
  end
  begin
     id 8 
     name rtibia
     direction -0.34202 -0.939693 0   
     length 7.44935   
     axis 0 0 -20   XYZ
    dof rx
    limits (-10.0 170.0)
 end
 begin
     id 9 
     name rfoot
     direction -0.104163 -0.286184 0.952496   
     length 1.77731  
     axis -90 -7.62852e-016 -20   XYZ
    dof rx rz
    limits (-45.0 90.0)
           (-20.0 70.0)
  end
  begin
     id 10 
     name rtoes
     direction -1.5355e-011 -4.21888e-011 1   
     length 0.892424   
     axis -90 -7.62852e-016 -20   XYZ
    dof rx
    limits (-90.0 20.0)
  end
  begin
     id 11 
     name lowerback
     direction 0.0100202 0.997226 -0.0737589   
     length 2.16892   
     axis 0 0 0   XYZ
    dof rx ry rz
    limits (-20.0 45.0)
           (-30.0 30.0)
           (-30.0 30.0)
  end
  begin
     id 12 
     name upperback
     direction 0.00432398 0.999988 -0.00215019   
     length 2.17326   
     axis 0 0 0   XYZ
    dof rx ry rz
    limits (-20.0 45.0)
           (-30.0 30.0)
           (-30.0 30.0)
  end
  begin
     id 13 
     name thorax
     direction -0.00195047 0.999485 0.0320434   
     length 2.18139   
     axis 0 0 0   XYZ
    dof rx ry rz
    limits (-20.0 45.0)
           (-30.0 30.0)
           (-30.0 30.0)
  end
  begin
     id 14 
     name lowerneck
     direction 0.00782762 0.986241 0.165128   
     length 1.88415   
     axis 0 0 0   XYZ
    dof rx ry rz
    limits (-20.0 45.0)
           (-30.0 30.0)
           (-30.0 30.0)
  end
  begin
     id 15 
     name upperneck
     direction 0.00988667 0.981098 -0.193258   
     length 1.9242   
     axis 0 0 0   XYZ
    dof rx ry rz
    limits (-20.0 45.0)
           (-30.0 30.0)
           (-30.0 30.0)
  end
  begin
     id 16
     name head
     direction 0.00252199 0.996513 -0.0833958  
     length 1.93887  
     axis 0 0 0   XYZ
    dof rx ry rz
    limits (-20.0 45.0)
           (-30.0 30.0)
           (-30.0 30.0)
  end
  begin
     id 17 
     name lclavicle
     direction 0.929492 0.368193 -0.0218667  
     length 3.5955  
     axis 0 0 0   XYZ
    dof ry rz
    limits (-20.0 10.0)
           (0.0 20.0)
  end
  begin
     id 18 
     name lhumerus
     direction 1 -4.48972e-011 1.41911e-027   
     length 5.2795   
     axis 180 -30 -90   XYZ
    dof rx ry rz
    limits (-60.0 90.0)
           (-90.0 90.0)
           (-90.0 90.0)
  end
  begin
     id 19
     name lradius
     direction 1 -4.48963e-011 7.05772e-027   
     length 3.53504   
     axis 180 -30 -90   XYZ
    dof rx
    limits (-10.0 170.0)
  end
  begin
     id 20
     name lwrist
     direction 1 -4.48957e-011 9.54866e-027   
     length 1.76752   
     axis -7.69462e-015 90 90   XYZ
    dof ry
    limits (-180.0 0.0)
 end
  begin
     id 21 
     name lhand
     direction 1 -4.48979e-011 1.90973e-026   
     length 0.667948   
     axis -1.21857e-014 90 90   XYZ
    dof rx rz
    limits (-90.0 90.0)
           (-45.0 45.0)
  end
  begin
     id 22 
     name lfingers
     direction 1 -4.48987e-011 3.81946e-026   
     length 0.538517   
     axis -2.43714e-014 90 90   XYZ
    dof rx
    limits (0.0 90.0)
  end
  begin
     id 23
     name lthumb
     direction 0.707107 -6.34962e-011 0.707107   
     length 0.773206   
     axis -90 45 2.85299e-015   XYZ
    dof rx rz
    limits (-45.0 45.0)
           (-45.0 45.0)
  end
  begin
     id 24 
     name rclavicle
     direction -0.898763 0.414256 -0.143584   
     length 3.5176  
     axis 0 0 0   XYZ 
    dof ry rz
    limits (-10.0 20.0)
           (-20.0 0.0)
  end
  begin
     id 25 
     name rhumerus
     direction -1 -4.48971e-011 1.129e-027  
     length 5.25035   
     axis 180 30 90   XYZ
    dof rx ry rz
    limits (-90.0 60.0)
           (-90.0 90.0)
           (-90.0 90.0)
  end
  begin
     id 26 
     name rradius
     direction -1 -4.48955e-011 6.34664e-027   
     length 3.58884   
     axis 180 30 90   XYZ
    dof rx
    limits (-10.0 170.0)
  end
  begin
     id 27 
     name rwrist
     direction -1 -4.48966e-011 9.54866e-027   
     length 1.79442   
     axis -7.69462e-015 -90 -90   XYZ
    dof ry
    limits (-180.0 0.0)
  end
  begin
     id 28
     name rhand
     direction -1 -4.48973e-011 1.90973e-026   
     length 0.779235   
     axis -1.21857e-014 -90 -90   XYZ
    dof rx rz
    limits (-90.0 90.0)
           (-45.0 45.0)
  end
  begin
     id 29
     name rfingers
     direction -1 -4.48984e-011 3.81946e-026   
     length 0.62824   
     axis -2.43714e-014 -90 -90   XYZ
    dof rx
    limits (0.0 90.0)
  end
  begin
     id 30
     name rthumb
     direction -0.707107 -6.34968e-011 0.707107   
     length 0.90203   
     axis -90 -45 -2.85299e-015   XYZ
    dof rx rz
    limits (-45.0 45.0)
           (-45.0 45.0)
  end
:hierarchy
  begin
    root lhipjoint rhipjoint lowerback
    lhipjoint lfemur
    lfemur ltibia
    ltibia lfoot
    lfoot ltoes
    rhipjoint rfemur
    rfemur rtibia
    rtibia rfoot
    rfoot rtoes
    lowerback upperback
    upperback thorax
    thorax lowerneck lclavicle rclavicle
    lowerneck upperneck
    upperneck head
    lclavicle lhumerus
    lhumerus lradius
    lradius lwrist
    lwrist lhand lthumb
    lhand lfingers
    rclavicle rhumerus
    rhumerus rradius
    rradius rwrist
    rwrist rhand rthumb
    rhand rfingers
  end

#!OML:ASF I:\Random Stuff\random\construction\7_22_03\Session 2\subj1.ASF
:FULLY-SPECIFIED
:DEGREES
91
root -3.55438 17.7443 0.821612 -86.8314 87.9714 -90.538
lowerback 4.72062 1.37844 1.67277
upperback -2.39185 2.00967 0.828774
thorax -5.0978 0.959386 -0.261416
lowerneck -17.279 -6.76443 -6.2884
upperneck 33.9443 -9.01234 5.39059
head 15.3673 -3.54201 1.79347
rclavicle 1.61295e-014 3.77691e-015
rhumerus -36.5067 -10.365 -76.5119
rradius 29.0207
rwrist -19.1833
rhand -26.3952 21.0381
rfingers 7.12502
rthumb 0.164047 -8.94158
lclavicle 1.61295e-014 3.77691e-015
lhumerus -37.1578 -6.01313 89.723
lradius 31.2262
lwrist 25.2484
lhand -23.4079 61.8392
lfingers 7.12502
lthumb 3.04919 268.203
rfemur 4.14387 6.31886 19.6764
rtibia -6.36111e-015
rfoot -1.20801 -21.5082
rtoes -15.6074
lfemur -5.8104 -7.50755 -13.6285
ltibia 16.3747
lfoot -12.5611 8.11019
ltoes -29.126
92
root -3.54973 17.745 0.821108 -88.5519 88.0948 -92.3227
lowerback 4.68942 1.32257 1.52389
upperback -2.37797 1.92254 0.812499
thorax -5.07088 0.92106 -0.186173
lowerneck -16.845 -7.61156 -7.11142
upperneck 34.3852 -10.2479 5.98416
head 15.6923 -4.07136 1.96579
rclavicle -1.16817e-014 2.98177e-015
rhumerus -36.3249 -10.6948 -76.1935
rradius 29.4351
rwrist -19.5976
rhand -27.1038 21.038
rfingers 7.12502
rthumb -0.52032 -8.94107
lclavicle -1.16817e-014 2.98177e-015
lhumerus -36.8759 -5.34853 89.2641
lradius 31.1903
lwrist 25.5063
lhand -23.181 61.8225
lfingers 7.12502
lthumb 3.2683 268.223
rfemur 4.12334 6.25342 19.5201
rtibia 7.95139e-015
rfoot -1.3889 -21.514
rtoes -14.8658
lfemur -5.85064 -7.628 -13.7695
ltibia 16.3325
lfoot -12.5042 8.20965
ltoes -29.5459
93
root -3.54235 17.7443 0.830384 -89.7459 87.9589 -93.4791
lowerback 4.74267 1.29104 1.55251
upperback -2.33422 1.88557 0.870981
thorax -5.05711 0.903065 -0.139158
lowerneck -16.3449 -8.38991 -7.80783
upperneck 34.7623 -11.4186 6.52164
head 15.98 -4.56675 2.10469
rclavicle 1.12391e-014 1.0635e-014
rhumerus -36.0706 -11.3256 -75.7639
rradius 29.7712
rwrist -19.8797
rhand -28.0563 20.9761
rfingers 7.12502
rthumb -1.44033 -8.99882
lclavicle 1.12391e-014 1.0635e-014
lhumerus -36.6773 -4.76602 88.8592
lradius 31.3086
lwrist 25.6022
lhand -23.0184 62.0565
lfingers 7.12502
lthumb 3.42534 267.991
rfemur 4.20754 6.21616 19.704
rtibia 1.59028e-015
rfoot -1.50011 -21.5042
rtoes -14.4055
lfemur -5.78102 -7.73172 -13.5906
ltibia 16.3241
lfoot -12.5916 8.2401
ltoes -29.2783
94
root -3.53519 17.7439 0.844673 -90.1411 87.6982 -93.8307
lowerback 4.81216 1.26326 1.6494
upperback -2.29689 1.862 0.979655
thorax -5.05878 0.890472 -0.0800858
lowerneck -15.8828 -9.07542 -8.44305
upperneck 35.147 -12.4815 7.05743
head 16.2903 -5.00687 2.25201
rclavicle -7.90635e-015 -1.23246e-014
rhumerus -35.7663 -12.2519 -75.1899
rradius 30.0205
rwrist -20.1395
rhand -29.0753 20.967
rfingers 7.12502
rthumb -2.42442 -8.99896
lclavicle -7.90635e-015 -1.23246e-014
lhumerus -36.5933 -4.37572 88.5512
lradius 31.5941
lwrist 25.7127
lhand -23.1941 62.1742
lfingers 7.12502
lthumb 3.25568 267.871
rfemur 4.27473 6.20241 20.0521
rtibia -1.11319e-014
rfoot -1.5236 -21.5
rtoes -14.4327
lfemur -5.70986 -7.82077 -13.2518
ltibia 16.3116
lfoot -12.6522 8.26785
ltoes -29.0059
95
root -3.53057 17.7442 0.853834 -90.5599 87.5955 -94.2563
lowerback 4.83107 1.19616 1.60316
upperback -2.23431 1.77374 1.08568
thorax -5.01 0.850907 0.0637459
lowerneck -15.5518 -9.69641 -8.96785
upperneck 35.5327 -13.4204 7.40005
head 16.6103 -5.40529 2.31459
rclavicle 5.5287e-016 -7.95139e-016
rhumerus -35.3538 -12.9352 -74.6616
rradius 30.3651
rwrist -20.7358
rhand -30.1594 20.8009
rfingers 7.12502
rthumb -3.47138 -9.15058
lclavicle 5.5287e-016 -7.95139e-016
lhumerus -36.4835 -3.91722 88.2855
lradius 31.9221
lwrist 25.8816
lhand -23.4424 62.1125
lfingers 7.12502
lthumb 3.01586 267.929
rfemur 4.28072 6.18383 20.2017
rtibia -1.11319e-014
rfoot -1.53614 -21.5232
rtoes -14.526
lfemur -5.66986 -8.0019 -13.1097
ltibia 16.2425
lfoot -12.6008 8.42209
ltoes -29.1552
